<svg width="50" height="50" viewBox="0 0 50 50" fill="none" xmlns="http://www.w3.org/2000/svg">
<path d="M40.6875 13.3542C41.2896 13.9234 41.641 14.7084 41.6644 15.5366C41.6879 16.3648 41.3814 17.1685 40.8125 17.7708L23.1042 36.5208C22.8172 36.8242 22.4723 37.0669 22.0899 37.2347C21.7075 37.4025 21.2953 37.492 20.8778 37.4978C20.4602 37.5036 20.0457 37.4257 19.6588 37.2686C19.2719 37.1116 18.9204 36.8785 18.625 36.5833L9.25 27.2083C8.698 26.6159 8.39749 25.8324 8.41177 25.0228C8.42606 24.2132 8.75402 23.4408 9.32658 22.8682C9.89913 22.2957 10.6716 21.9677 11.4812 21.9534C12.2907 21.9392 13.0743 22.2397 13.6667 22.7917L20.7708 29.8917L36.2708 13.4792C36.84 12.8771 37.6251 12.5257 38.4533 12.5022C39.2815 12.4788 40.0852 12.7852 40.6875 13.3542Z" fill="#0D8C24"/>
</svg>
