<svg width="50" height="50" viewBox="0 0 50 50" fill="none" xmlns="http://www.w3.org/2000/svg">
<path d="M9.25009 9.25008C9.83603 8.66487 10.6303 8.33616 11.4584 8.33616C12.2866 8.33616 13.0808 8.66487 13.6668 9.25008L25.0001 20.5792L36.3334 9.25008C36.6234 8.96008 36.9677 8.73003 37.3466 8.57309C37.7255 8.41614 38.1316 8.33536 38.5418 8.33536C38.9519 8.33536 39.358 8.41614 39.7369 8.57309C40.1158 8.73003 40.4601 8.96008 40.7501 9.25008C41.0401 9.54008 41.2701 9.88436 41.4271 10.2633C41.584 10.6422 41.6648 11.0483 41.6648 11.4584C41.6648 11.8685 41.584 12.2746 41.4271 12.6536C41.2701 13.0325 41.0401 13.3767 40.7501 13.6667L29.4209 25.0001L40.7501 36.3334C41.3358 36.9191 41.6648 37.7135 41.6648 38.5417C41.6648 39.37 41.3358 40.1644 40.7501 40.7501C40.1644 41.3358 39.37 41.6648 38.5418 41.6648C37.7135 41.6648 36.9191 41.3358 36.3334 40.7501L25.0001 29.4209L13.6668 40.7501C13.0811 41.3358 12.2867 41.6648 11.4584 41.6648C10.6301 41.6648 9.83578 41.3358 9.25009 40.7501C8.66441 40.1644 8.33537 39.37 8.33537 38.5417C8.33537 37.7135 8.66441 36.9191 9.25009 36.3334L20.5793 25.0001L9.25009 13.6667C8.66488 13.0808 8.33618 12.2865 8.33618 11.4584C8.33618 10.6303 8.66488 9.83602 9.25009 9.25008Z" fill="#B80F0F"/>
</svg>
