<?xml version="1.0" encoding="UTF-8" standalone="no"?>
<!-- Created with Inkscape (http://www.inkscape.org/) -->

<svg
   width="40"
   height="32.205139"
   viewBox="0 0 10.583333 8.5209431"
   version="1.1"
   id="svg1"
   inkscape:version="1.3.2 (091e20e, 2023-11-25, custom)"
   sodipodi:docname="games.svg"
   xmlns:inkscape="http://www.inkscape.org/namespaces/inkscape"
   xmlns:sodipodi="http://sodipodi.sourceforge.net/DTD/sodipodi-0.dtd"
   xmlns:xlink="http://www.w3.org/1999/xlink"
   xmlns="http://www.w3.org/2000/svg"
   xmlns:svg="http://www.w3.org/2000/svg">
  <sodipodi:namedview
     id="namedview1"
     pagecolor="#ffffff"
     bordercolor="#eeeeee"
     borderopacity="1"
     inkscape:showpageshadow="true"
     inkscape:pageopacity="0"
     inkscape:pagecheckerboard="false"
     inkscape:deskcolor="#686868"
     inkscape:document-units="px"
     borderlayer="true"
     showborder="true"
     inkscape:zoom="1.1934869"
     inkscape:cx="552.58252"
     inkscape:cy="427.73825"
     inkscape:window-width="1920"
     inkscape:window-height="1057"
     inkscape:window-x="-8"
     inkscape:window-y="-8"
     inkscape:window-maximized="1"
     inkscape:current-layer="layer2"
     showgrid="false" />
  <defs
     id="defs1">
    <linearGradient
       id="linearGradient47"
       inkscape:collect="always">
      <stop
         style="stop-color:#32ec4e;stop-opacity:1;"
         offset="0"
         id="stop47" />
      <stop
         style="stop-color:#32a058;stop-opacity:1;"
         offset="1"
         id="stop48" />
    </linearGradient>
    <linearGradient
       id="linearGradient45"
       inkscape:collect="always">
      <stop
         style="stop-color:#35ec58;stop-opacity:1;"
         offset="0"
         id="stop45" />
      <stop
         style="stop-color:#2a824a;stop-opacity:1;"
         offset="1"
         id="stop46" />
    </linearGradient>
    <linearGradient
       id="linearGradient43"
       inkscape:collect="always">
      <stop
         style="stop-color:#36eb74;stop-opacity:1;"
         offset="0"
         id="stop43" />
      <stop
         style="stop-color:#2f844c;stop-opacity:1;"
         offset="1"
         id="stop44" />
    </linearGradient>
    <linearGradient
       id="linearGradient41"
       inkscape:collect="always">
      <stop
         style="stop-color:#25ee58;stop-opacity:1;"
         offset="0"
         id="stop41" />
      <stop
         style="stop-color:#35814e;stop-opacity:1;"
         offset="1"
         id="stop42" />
    </linearGradient>
    <linearGradient
       id="linearGradient39"
       inkscape:collect="always">
      <stop
         style="stop-color:#2ff854;stop-opacity:1;"
         offset="0"
         id="stop39" />
      <stop
         style="stop-color:#1d763c;stop-opacity:1;"
         offset="1"
         id="stop40" />
    </linearGradient>
    <linearGradient
       id="linearGradient29"
       inkscape:collect="always">
      <stop
         style="stop-color:#3cec64;stop-opacity:1;"
         offset="0"
         id="stop29" />
      <stop
         style="stop-color:#1f6a39;stop-opacity:1;"
         offset="1"
         id="stop30" />
    </linearGradient>
    <linearGradient
       id="linearGradient27"
       inkscape:collect="always">
      <stop
         style="stop-color:#28db43;stop-opacity:1;"
         offset="0"
         id="stop27" />
      <stop
         style="stop-color:#25703e;stop-opacity:1;"
         offset="1"
         id="stop28" />
    </linearGradient>
    <linearGradient
       id="linearGradient25"
       inkscape:collect="always">
      <stop
         style="stop-color:#52ee62;stop-opacity:1;"
         offset="0"
         id="stop25" />
      <stop
         style="stop-color:#3e8c59;stop-opacity:1;"
         offset="1"
         id="stop26" />
    </linearGradient>
    <linearGradient
       id="linearGradient23"
       inkscape:collect="always">
      <stop
         style="stop-color:#33dc50;stop-opacity:1;"
         offset="0"
         id="stop23" />
      <stop
         style="stop-color:#228e47;stop-opacity:1;"
         offset="1"
         id="stop24" />
    </linearGradient>
    <linearGradient
       id="linearGradient1"
       inkscape:collect="always">
      <stop
         style="stop-color:#0f0f3a;stop-opacity:1;"
         offset="0.23659305"
         id="stop1" />
      <stop
         style="stop-color:#3782c0;stop-opacity:1;"
         offset="0.60450161"
         id="stop8" />
      <stop
         style="stop-color:#62adc3;stop-opacity:1;"
         offset="1"
         id="stop2" />
    </linearGradient>
    <linearGradient
       inkscape:collect="always"
       xlink:href="#linearGradient1"
       id="linearGradient2"
       x1="78.316666"
       y1="90.752083"
       x2="247.12083"
       y2="90.752083"
       gradientUnits="userSpaceOnUse"
       gradientTransform="translate(-71.966669,-259.55625)" />
    <linearGradient
       inkscape:collect="always"
       xlink:href="#linearGradient23"
       id="linearGradient24"
       x1="209.58551"
       y1="87.784508"
       x2="211.30984"
       y2="152.68233"
       gradientUnits="userSpaceOnUse"
       gradientTransform="translate(0.86216923,1.1756853)" />
    <linearGradient
       inkscape:collect="always"
       xlink:href="#linearGradient25"
       id="linearGradient26"
       x1="234.35327"
       y1="91.703453"
       x2="220.55856"
       y2="145.15794"
       gradientUnits="userSpaceOnUse" />
    <linearGradient
       inkscape:collect="always"
       xlink:href="#linearGradient27"
       id="linearGradient28"
       x1="193.43942"
       y1="73.206009"
       x2="195.7908"
       y2="150.48772"
       gradientUnits="userSpaceOnUse" />
    <linearGradient
       inkscape:collect="always"
       xlink:href="#linearGradient29"
       id="linearGradient30"
       x1="219.77478"
       y1="75.870895"
       x2="206.29358"
       y2="128.07132"
       gradientUnits="userSpaceOnUse" />
    <linearGradient
       inkscape:collect="always"
       xlink:href="#linearGradient39"
       id="linearGradient40"
       x1="113.17513"
       y1="85.574745"
       x2="114.68436"
       y2="128.36079"
       gradientUnits="userSpaceOnUse" />
    <linearGradient
       inkscape:collect="always"
       xlink:href="#linearGradient41"
       id="linearGradient42"
       x1="135.28755"
       y1="96.991753"
       x2="139.55658"
       y2="133.57048"
       gradientUnits="userSpaceOnUse" />
    <linearGradient
       inkscape:collect="always"
       xlink:href="#linearGradient43"
       id="linearGradient44"
       x1="140.55106"
       y1="78.25634"
       x2="169.37067"
       y2="131.90517"
       gradientUnits="userSpaceOnUse"
       gradientTransform="matrix(0.14121183,0,0,0.14121183,201.56287,111.05994)" />
    <linearGradient
       inkscape:collect="always"
       xlink:href="#linearGradient45"
       id="linearGradient46"
       x1="157.84282"
       y1="63.403156"
       x2="172.03093"
       y2="129.46658"
       gradientUnits="userSpaceOnUse"
       gradientTransform="matrix(0.13997376,0.01865814,-0.01865814,0.13997376,203.79308,109.44068)" />
    <linearGradient
       inkscape:collect="always"
       xlink:href="#linearGradient47"
       id="linearGradient48"
       x1="184.00217"
       y1="76.482826"
       x2="174.02614"
       y2="128.35814"
       gradientUnits="userSpaceOnUse"
       gradientTransform="matrix(0.14121183,0,0,0.14121183,201.56287,111.05994)" />
    <linearGradient
       inkscape:collect="always"
       xlink:href="#linearGradient45"
       id="linearGradient49"
       gradientUnits="userSpaceOnUse"
       gradientTransform="matrix(0.16150072,0.02152763,-0.02152763,0.16150072,125.32575,106.60791)"
       x1="157.84282"
       y1="63.403156"
       x2="172.03093"
       y2="129.46658" />
  </defs>
  <a
     id="a8"
     transform="translate(-181.01636,-119.99272)">
    <g
       inkscape:label="Steam Logo"
       inkscape:groupmode="layer"
       id="layer1"
       style="display:none">
      <circle
         style="display:inline;fill:url(#linearGradient2);fill-rule:nonzero;stroke-width:0.715271"
         id="path1"
         cx="90.752083"
         cy="-168.80417"
         transform="rotate(90)"
         r="84.402084" />
      <path
         id="path5"
         style="fill:#f9f9f9;stroke-width:13.2292"
         inkscape:transform-center-x="-1.4099486"
         inkscape:transform-center-y="-1.6149424"
         d="m 176.34326,118.9115 c 2.73671,-6.69744 -15.84597,-17.14318 -18.93915,-10.60269 -1.02394,2.16508 16.42825,-37.451633 16.42825,-37.451633 l 31.97074,26.054072 c 0,0 -30.94078,25.624511 -29.45984,22.000251 z"
         sodipodi:nodetypes="ssccs" />
      <circle
         style="fill:none;fill-rule:nonzero;stroke:#f9f9f9;stroke-width:11.5183;stroke-dasharray:none"
         id="circle4"
         cx="67.733337"
         cy="-199.76041"
         transform="rotate(90)"
         r="24.523464" />
      <circle
         style="fill:#f9f9f9;fill-rule:nonzero;stroke:none;stroke-width:4.6142;stroke-dasharray:none"
         id="circle5"
         cx="67.733337"
         cy="-199.76041"
         transform="rotate(90)"
         r="13.242683" />
      <circle
         style="fill:none;fill-rule:nonzero;stroke:#f9f9f9;stroke-width:3.96875;stroke-dasharray:none"
         id="circle6"
         cx="124.88173"
         cy="-161.04663"
         transform="rotate(90)"
         r="16.809929" />
      <path
         id="rect6"
         style="fill:#ffffff;fill-opacity:1;fill-rule:nonzero;stroke:none;stroke-width:4.19833;stroke-dasharray:none"
         d="m 83.967431,93.362793 c 5.5e-5,0.0019 -3.5e-5,0.0037 -4.62e-4,0.0055 0.02064,0.832155 0.068,1.70475 0.116918,2.576891 0.06132,1.093622 0.165847,2.226432 0.290971,3.404476 0.243245,2.60711 0.596379,4.94067 1.13173,7.68371 0.349582,1.79122 0.790895,3.67457 1.396625,5.95477 l 71.392537,19.87495 c 4.87758,1.35788 9.85837,-1.44983 11.16769,-6.29511 1.30932,-4.84528 -1.56334,-9.83899 -6.44092,-11.19686 z"
         sodipodi:nodetypes="ccscsccscc" />
    </g>
    <g
       inkscape:groupmode="layer"
       id="layer2"
       inkscape:label="Leaf">
      <path
         id="path2"
         style="fill:#54de7c;fill-opacity:1;stroke-width:3.96875"
         d="M 76.706343,12.931242 A 53.881538,53.881538 0 0 0 42.365803,25.48448 l -26.445416,3.162081 h 22.946406 45.90262 l -40.26111,4.81366 A 53.881538,53.881538 0 0 0 76.706343,44.361881 53.881538,53.881538 0 0 0 114.63942,28.553544 53.881538,53.881538 0 0 0 76.706343,12.931242 Z" />
      <path
         style="fill:#64e590;fill-opacity:1;stroke-width:0.544553"
         d="m 216.48791,15.055459 c -0.30763,-0.03289 -0.61644,-0.05957 -0.92628,-0.0794 -1.12917,-0.06987 -2.26664,-0.0374 -3.38568,0.116151 v 0 c -1.16328,0.160512 -2.29392,0.455476 -3.3638,0.872928 -2.55741,1.007198 -4.68916,2.661394 -6.47228,4.541761 1.96312,-1.668607 4.21273,-3.049231 6.6953,-3.738377 v 0 c 1.03784,-0.288098 2.1094,-0.45391 3.18572,-0.494845 0.66321,-0.02522 1.32771,-0.0035 1.98857,0.05872 0.37162,0.03498 0.74208,0.08275 1.11052,0.142171 2.06951,0.333735 4.06586,1.024811 6.00232,1.827546 1.97403,0.818307 3.89516,1.758013 5.8478,2.626113 v 0 c 1.8878,0.839274 3.81193,1.621421 5.82128,2.10175 0.96536,0.230769 1.94948,0.388968 2.94068,0.440825 0.9701,0.05075 1.94641,-0.0022 2.90283,-0.172023 -0.9381,0.272977 -1.9213,0.433389 -2.91925,0.485933 -1.01925,0.05356 -2.05079,-0.002 -3.07202,-0.136631 -2.12305,-0.281074 -4.2009,-0.877335 -6.20327,-1.528273 v 0 c -2.07541,-0.670303 -4.09549,-1.401839 -6.08221,-1.974298 -1.31127,-0.373364 -2.60351,-0.688623 -3.85666,-0.87002 6.52592,13.716458 36.66226,12.932342 34.08794,-6.054666 -15.13695,4.762674 -16.08334,-11.0069518 -34.30151,1.83463 z"
         id="path6"
         sodipodi:nodetypes="ccssccsssssssssscccsscccc" />
      <path
         style="fill:#64e590;fill-opacity:1;stroke-width:0.925315"
         d="m 153.76926,15.829605 c -0.50422,-2.32e-4 -0.87449,-0.251333 -1.31024,-0.386925 -2.72822,-0.852986 -5.4014,-1.963168 -7.93023,-3.415262 h -10e-6 c -2.32523,-1.337795 -4.53471,-2.9501379 -6.44164,-4.9639779 1.57666,2.245712 3.54048,4.2037969 5.6882,5.9115399 2.06393,1.641118 4.30341,3.055381 6.64515,4.269001 0.30686,0.159034 0.61548,0.314624 0.92569,0.466824 5.54998,2.723052 11.62109,4.423392 17.79072,4.814541 v 0 c 2.91321,0.184694 5.8538,0.06443 8.72045,-0.486272 1.2936,-0.248507 2.57339,-0.586931 3.81478,-1.027989 -1.17653,0.62361 -2.42165,1.155875 -3.70515,1.598677 v 0 c -2.84279,0.982062 -5.87779,1.548719 -8.94833,1.780738 -5.46479,0.417804 -11.11222,-0.143066 -16.61465,-1.622918 10.70322,18.682504 51.91017,4.318966 42.28271,-14.9429769 -16.18998,10.5721449 -23.97545,-6.064293 -40.91745,8.0049999 z"
         id="path11"
         sodipodi:nodetypes="ccsscsssssscsscccc" />
      <path
         style="fill:#64e590;fill-opacity:1;stroke-width:0.963912"
         d="m 250.46803,44.671979 c -3.24258,0.260048 -6.33973,1.19727 -9.05218,2.695242 v 0 c -1.70216,0.945817 -3.23663,2.081524 -4.62078,3.331531 v 0 c -1.63504,1.476694 -3.06795,3.104311 -4.35824,4.808105 1.50061,-1.492289 3.11346,-2.876777 4.86221,-4.068695 v 0 c 1.47959,-1.00845 3.05826,-1.876743 4.72364,-2.534519 v 0 c 1.80612,-0.713364 3.71558,-1.156595 5.64961,-1.325554 1.14109,-0.09968 2.29074,-0.103884 3.43275,-0.01175 2.98523,0.24083 5.89555,1.085084 8.68037,2.187042 v 0 c 2.87532,1.137774 5.63416,2.547478 8.37986,3.969834 2.69742,1.397343 5.3853,2.822193 8.18087,4.011071 1.31529,0.559364 2.6593,1.068216 4.03009,1.47346 -1.4279,-0.212059 -2.85822,-0.53528 -4.26659,-0.91736 -2.99441,-0.809186 -5.93017,-1.876915 -8.81311,-2.890149 -2.94101,-1.030057 -5.8388,-2.022717 -8.68709,-2.675013 v 0 c -2.48778,-0.559686 -4.91847,-0.895365 -7.14746,-0.768668 26.6323,30.927752 46.61235,6.213684 49.18449,0.587641 -18.31096,0.620942 -29.29641,-23.285598 -50.17844,-7.872214 z"
         id="path12"
         sodipodi:nodetypes="csssscsssssssssscccssccc" />
      <g
         id="g15"
         transform="matrix(0.157555,0,0,0.157555,167.97022,107.27764)"
         inkscape:export-filename="leafs_2.svg"
         inkscape:export-xdpi="96"
         inkscape:export-ydpi="96">
        <path
           style="fill:url(#linearGradient42);fill-opacity:1;stroke-width:0.608976"
           d="m 128.07867,117.85725 c -0.14003,0.31637 -0.27388,0.63612 -0.40077,0.95931 -0.45989,1.17862 -0.81363,2.40103 -1.03213,3.64514 v 0 c -0.22619,1.29359 -0.29807,2.59834 -0.21875,3.88018 0.19952,3.06729 1.23336,5.90215 2.62707,8.44297 -1.10675,-2.66021 -1.80902,-5.52719 -1.6954,-8.40619 v 0 c 0.0475,-1.20358 0.23674,-2.40132 0.56059,-3.56148 0.19954,-0.71489 0.44956,-1.4151 0.7414,-2.09763 0.16411,-0.38381 0.34147,-0.762 0.53053,-1.13408 1.0619,-2.08994 2.47936,-3.97997 3.99529,-5.7681 1.54534,-1.82283 3.2019,-3.54788 4.79297,-5.33094 v 0 c 1.53822,-1.72384 3.02802,-3.50588 4.22549,-5.4817 0.57531,-0.94925 1.07975,-1.94325 1.47336,-2.9811 0.38522,-1.015762 0.66216,-2.073522 0.80779,-3.150012 -0.0295,1.09219 -0.19438,2.19399 -0.47911,3.274662 -0.29092,1.10371 -0.70242,2.18319 -1.19425,3.22481 -1.02409,2.16493 -2.36842,4.17412 -3.74519,6.08427 l -10e-6,1e-5 c -1.42233,1.98131 -2.89099,3.88281 -4.17885,5.80308 -0.84525,1.26893 -1.62213,2.53745 -2.24311,3.81003 16.83482,-2.267 26.2879,-34.627532 5.18939,-38.367972 -0.0957,17.74558 -17.21216,13.369884 -9.75631,37.154742 z"
           id="path7"
           sodipodi:nodetypes="ccssccsssssssssscccsscccc" />
        <path
           style="fill:url(#linearGradient40);fill-opacity:1;stroke-width:0.925315"
           d="m 117.32531,115.14241 c 0.35527,0.35779 0.43818,0.79744 0.64918,1.20208 1.31819,2.53637 2.41515,5.215 3.16785,8.03227 h 10e-6 c 0.69019,2.59231 1.10416,5.29602 1.02003,8.06818 0.4814,-2.70136 0.48589,-5.47457 0.18317,-8.20174 -0.2909,-2.62077 -0.86647,-5.20614 -1.65642,-7.7226 -0.10351,-0.32976 -0.21074,-0.65833 -0.32147,-0.98564 -1.98092,-5.85605 -5.05459,-11.36077 -9.12629,-16.012507 v 0 c -1.9226,-2.196481 -4.08081,-4.197382 -6.49217,-5.842459 -1.08816,-0.742343 -2.23036,-1.41151 -3.41828,-1.981091 1.27168,0.39489 2.52693,0.902818 3.74577,1.501039 v 0 c 2.70052,1.324055 5.24189,3.077271 7.57096,5.091581 4.14861,3.581557 7.73182,7.982537 10.561,12.928487 5.70615,-20.761371 -33.529494,-39.863425 -40.404965,-19.4566 18.911365,4.030655 12.599643,21.28019 34.521585,23.37901 z"
           id="path15"
           sodipodi:nodetypes="ccsscsssssscsscccc" />
      </g>
      <path
         style="fill:url(#linearGradient48);fill-opacity:1;stroke-width:0.117107"
         d="m 226.10494,128.29005 c 0.0317,0.39394 0.14543,0.77022 0.32745,1.09977 v 0 c 0.11498,0.20678 0.25289,0.39322 0.40476,0.56138 v 0 c 0.1794,0.19863 0.37714,0.37273 0.58414,0.52948 -0.1813,-0.18232 -0.34951,-0.37826 -0.49431,-0.59071 v 0 c -0.12251,-0.17975 -0.22802,-0.37156 -0.30793,-0.57389 v 0 c -0.0866,-0.21943 -0.14053,-0.45141 -0.161,-0.68638 -0.0122,-0.1386 -0.0122,-0.27829 -0.002,-0.41704 0.0292,-0.36269 0.13178,-0.71627 0.26569,-1.05459 v 0 c 0.13826,-0.34934 0.3095,-0.68451 0.48231,-1.01809 0.16976,-0.32771 0.34287,-0.65427 0.48731,-0.99391 0.0679,-0.15978 0.12985,-0.32308 0.17901,-0.48962 -0.0257,0.17344 -0.0651,0.34725 -0.11148,0.51836 -0.0984,0.36378 -0.22803,0.72047 -0.35113,1.07071 -0.12513,0.35731 -0.24574,0.70937 -0.325,1.05542 v 0 c -0.0681,0.30224 -0.10885,0.59754 -0.0934,0.86835 3.75746,-3.23561 0.75492,-5.663 0.0714,-5.9755 0.0754,2.22463 -2.82899,3.55926 -0.95639,6.09626 z"
         id="path14"
         sodipodi:nodetypes="csssscsssssssssscccssccc" />
      <path
         style="fill:url(#linearGradient44);fill-opacity:1;stroke-width:0.136116"
         d="m 223.80782,128.93119 c 0.34974,0.2978 0.75258,0.51349 1.17301,0.63475 v 0 c 0.2644,0.0754 0.53102,0.11533 0.79404,0.12881 v 0 c 0.31071,0.0157 0.61631,-0.004 0.91527,-0.045 -0.29884,-8.4e-4 -0.59812,-0.0236 -0.89177,-0.0793 v 0 c -0.24842,-0.0471 -0.49276,-0.11795 -0.72473,-0.21859 v 0 c -0.25158,-0.10903 -0.4865,-0.25553 -0.69649,-0.43176 -0.1239,-0.10395 -0.23911,-0.21835 -0.34392,-0.34159 -0.27404,-0.32214 -0.48035,-0.69704 -0.64837,-1.08514 v 0 c -0.17343,-0.40071 -0.30822,-0.81695 -0.44035,-1.23313 -0.12986,-0.40888 -0.25593,-0.81955 -0.41636,-1.21739 -0.0754,-0.18719 -0.15891,-0.37221 -0.25529,-0.54955 0.12146,0.16381 0.23195,0.33886 0.33443,0.51763 0.2182,0.3798 0.40472,0.77954 0.59142,1.16859 0.19081,0.39651 0.38104,0.78499 0.60031,1.13454 v 0 c 0.19253,0.30429 0.40171,0.58052 0.63694,0.79042 0.42891,-5.74748 -4.03389,-5.27476 -4.85249,-4.96983 1.89038,1.76639 0.60019,5.25041 4.22435,5.79646 z"
         id="path16"
         sodipodi:nodetypes="csssscsssssssssscccssccc" />
      <path
         style="fill:url(#linearGradient46);fill-opacity:1;stroke-width:0.0960041"
         d="m 224.82537,127.02113 c 8.8e-4,0.0546 0.004,0.10904 0.007,0.16382 0.014,0.199 0.045,0.39712 0.0973,0.58926 v 0 c 0.0544,0.19972 0.13178,0.39069 0.22906,0.56826 0.23421,0.42419 0.57187,0.75929 0.94114,1.02829 -0.33635,-0.30529 -0.62884,-0.66719 -0.80575,-1.08554 v 0 c -0.074,-0.17484 -0.12723,-0.35847 -0.15891,-0.54571 -0.0194,-0.11533 -0.0308,-0.23203 -0.035,-0.349 -0.002,-0.0658 -0.002,-0.1316 -4.2e-4,-0.19737 0.0105,-0.3694 0.0868,-0.73413 0.18307,-1.09091 0.0982,-0.36373 0.21881,-0.72095 0.3262,-1.08204 v 0 c 0.10378,-0.34913 0.19683,-0.70329 0.23514,-1.0655 0.0184,-0.17396 0.0236,-0.34966 0.0105,-0.52413 -0.014,-0.17081 -0.0445,-0.34025 -0.0961,-0.50359 0.0691,0.15786 0.11953,0.32604 0.15138,0.49932 0.0325,0.17699 0.0464,0.35857 0.046,0.54018 -8.4e-4,0.37756 -0.0579,0.75439 -0.12617,1.11924 v 0 c -0.07,0.37807 -0.15191,0.74786 -0.20691,1.10822 -0.0355,0.23773 -0.0613,0.4708 -0.0644,0.69401 2.24969,-1.45267 1.42764,-6.70351 -1.83328,-5.82189 1.17668,2.53812 -1.55877,3.06198 1.10037,5.95515 z"
         id="path17"
         sodipodi:nodetypes="ccssccsssssssssscccsscccc" />
      <path
         style="fill:url(#linearGradient49);fill-opacity:1;stroke-width:0.110769"
         d="m 149.59265,126.89212 c 0.002,0.0629 0.005,0.12591 0.008,0.18894 0.0155,0.22959 0.0519,0.45818 0.11222,0.67988 v 0 c 0.0628,0.23044 0.15204,0.45078 0.26429,0.65564 0.27023,0.48946 0.65981,0.87608 1.08588,1.18645 -0.38807,-0.35224 -0.72556,-0.7698 -0.92968,-1.2525 v 0 c -0.0853,-0.20179 -0.14686,-0.4136 -0.18336,-0.62964 -0.0225,-0.13312 -0.0357,-0.2677 -0.0403,-0.40265 -0.003,-0.0758 -0.003,-0.15187 -4.8e-4,-0.22775 0.013,-0.42619 0.10008,-0.84702 0.21123,-1.25867 0.1133,-0.41965 0.25246,-0.83182 0.37637,-1.24846 v 0 c 0.11979,-0.4028 0.2271,-0.81144 0.2713,-1.22935 0.0212,-0.20079 0.0273,-0.40345 0.0118,-0.60474 -0.0152,-0.19702 -0.0514,-0.39259 -0.11084,-0.58104 0.0796,0.18208 0.13781,0.37618 0.17457,0.57611 0.0375,0.2042 0.0535,0.41372 0.053,0.62327 -6.9e-4,0.43562 -0.0668,0.87038 -0.1456,1.29136 v 0 c -0.0808,0.43622 -0.17537,0.86289 -0.23875,1.27864 -0.041,0.2743 -0.0707,0.54323 -0.0744,0.80076 2.59567,-1.67608 1.64719,-7.73445 -2.11526,-6.71726 1.35765,2.92846 -1.79848,3.53291 1.26962,6.87101 z"
         id="path48"
         sodipodi:nodetypes="ccssccsssssssssscccsscccc"
         inkscape:export-filename="leafs_1.svg"
         inkscape:export-xdpi="96"
         inkscape:export-ydpi="96" />
      <g
         id="g48"
         transform="matrix(0.13040113,0,0,0.13040113,244.01865,111.18332)"
         inkscape:export-filename="leafs_4.svg"
         inkscape:export-xdpi="96"
         inkscape:export-ydpi="96">
        <path
           style="fill:url(#linearGradient26);fill-opacity:1;stroke-width:0.925315"
           d="m 218.64539,128.86386 c -0.25231,0.43656 -0.65491,0.63167 -0.99021,0.94124 -2.10282,1.93622 -4.40085,3.69617 -6.92282,5.16015 l -1e-5,1e-5 c -2.32117,1.34481 -1.6087,1.66832 -4.3062,2.31285 2.73317,-0.24257 2.19729,-0.18046 4.7501,-1.18657 2.45321,-0.96686 4.79774,-2.19917 7.01964,-3.62037 0.29115,-0.18623 0.58021,-0.37571 0.86712,-0.56826 5.13322,-3.4449 9.64132,-7.85246 13.06488,-12.99994 v 0 c 1.61656,-2.43057 2.98267,-5.03734 3.9391,-7.79527 0.43158,-1.24454 0.7784,-2.52209 1.01712,-3.81769 -0.0482,1.33071 -0.2098,2.67515 -0.46807,4.00809 v 0 c -0.57091,2.95296 -1.59767,5.86468 -2.932,8.63985 -2.37057,4.94155 -5.68002,9.55193 -9.71282,13.57725 21.53113,0.072 29.69542,-42.796044 8.20036,-44.089389 1.06076,19.307009 -17.23956,17.731209 -13.52619,39.438049 z"
           id="path18"
           sodipodi:nodetypes="ccsscsssssscsscccc"
           inkscape:transform-center-x="12.414604"
           inkscape:transform-center-y="2.2168936" />
        <path
           style="fill:url(#linearGradient30);fill-opacity:1;stroke-width:0.544553"
           d="m 210.21578,111.76717 c -0.0953,0.29434 -0.18488,0.59108 -0.26784,0.89026 -0.30053,1.09068 -0.50187,2.21069 -0.58126,3.33743 v 0 c -0.0817,1.17145 -0.0251,2.33856 0.16391,3.47135 0.46082,2.70969 -0.0821,4.43018 1.39224,6.56129 -1.23014,-2.26381 -0.39527,-4.0435 -0.5602,-6.61467 v 0 c -0.0689,-1.07486 -0.0113,-2.15764 0.16959,-3.21945 0.11143,-0.65427 0.26858,-1.30027 0.46566,-1.93417 0.11055,-0.35653 0.23333,-0.70929 0.36707,-1.05771 0.75139,-1.95693 -0.12193,-8.55003 1.06116,-10.28051 1.20606,-1.76404 4.47956,1.32973 5.72997,-0.40315 v 0 c 1.2089,-1.67534 2.36932,-3.397959 3.25186,-5.265939 0.42396,-0.89745 0.78081,-1.82813 1.03502,-2.78758 0.24853,-0.93911 0.39756,-1.90539 0.42748,-2.87633 0.0746,0.97414 0.0298,1.96934 -0.12361,2.95683 -0.15676,1.00854 -0.42291,2.00671 -0.76425,2.97857 -0.71086,2.02015 -1.72092,3.931379 -2.76899,5.757509 v 0 c -1.08203,1.89363 -2.21261,3.72055 -3.18068,5.54747 -0.6346,1.2067 0.82979,1.93661 0.39476,3.12571 14.7639,-3.57159 18.1443,-32.756956 -0.96685,-34.134649 1.55432,15.79223 -14.0738,13.48165 -5.24503,33.947749 z"
           id="path19"
           sodipodi:nodetypes="ccssccsssssssssscccssccccc" />
        <path
           style="fill:url(#linearGradient28);fill-opacity:1;stroke-width:0.877532"
           d="m 192.32201,127.41303 c 0.99271,2.79014 2.54664,5.29283 4.50303,7.32511 v 0 c 1.23278,1.27397 2.59305,2.35572 4.01841,3.27836 v 0 c 1.6838,1.08985 1.64998,0.86909 3.45227,1.60227 -1.66586,-0.96797 -1.46064,-0.96272 -2.92081,-2.21966 v 0 c -1.23543,-1.06349 -2.37095,-2.24713 -3.34178,-3.55662 v 0 c -1.05288,-1.42015 -1.89255,-2.99482 -2.49684,-4.65573 -0.35654,-0.97994 -0.63111,-1.98992 -0.81922,-3.01587 -0.49162,-2.68185 -0.43495,-5.44001 -0.1221,-8.14854 v 0 c 0.32302,-2.79654 0.91261,-5.55474 1.51643,-8.30435 0.59319,-2.70127 1.21282,-5.40063 1.59957,-8.13909 0.18197,-1.28841 0.31276,-2.590186 0.34612,-3.891098 0.14997,1.305612 0.20277,2.639538 0.19862,3.968038 -0.006,2.82385 -0.25318,5.65704 -0.4649,8.43094 -0.21282,2.82893 -0.40294,5.61105 -0.30542,8.26943 v 0 c 0.094,2.31955 0.37156,4.53611 1.00818,6.46635 20.92156,-30.706886 -5.51895,-42.453394 -11.07235,-43.389608 4.86056,15.955718 -13.57358,31.248918 4.90075,45.980078 z"
           id="path20"
           sodipodi:nodetypes="csssscsssssssssscccsscccc" />
        <path
           style="fill:url(#linearGradient24);fill-opacity:1;stroke-width:0.925315"
           d="m 207.08943,132.64841 c -0.0278,0.50346 -0.29875,0.85945 -0.45806,1.2871 -1.00099,2.67747 -2.25578,5.28588 -3.84407,7.73147 v 2e-5 c -1.46303,2.24852 -3.19386,4.36647 -5.30902,6.16036 2.32862,-1.45142 4.39122,-3.30515 6.21393,-5.35621 1.75159,-1.97103 3.28628,-4.12978 4.62622,-6.40159 0.17556,-0.2977 0.34784,-0.59736 0.51678,-0.89876 3.02266,-5.39266 5.05267,-11.36164 5.78083,-17.50061 v 0 c 0.34384,-2.89874 0.38461,-5.84151 -0.008,-8.73401 -0.17731,-1.30526 -0.44526,-2.60163 -0.81774,-3.86529 0.5583,1.20889 1.02164,2.48126 1.39355,3.78705 v 0 c 0.82503,2.89229 1.22476,5.95375 1.28843,9.03238 0.11814,5.47946 -0.75093,11.08775 -2.52964,16.50095 19.24019,-9.66488 7.153,-51.596062 -12.60689,-43.037028 9.6704,16.744218 -7.36715,23.607688 5.75401,41.294158 z"
           id="path21"
           sodipodi:nodetypes="ccsscsssssscsscccc"
           inkscape:transform-center-x="4.5393958"
           inkscape:transform-center-y="9.8628341" />
      </g>
    </g>
  </a>
</svg>
